<svg width="202" height="202" viewBox="0 0 202 202" fill="none" xmlns="http://www.w3.org/2000/svg">
<path d="M99.1222 84.1667L139.771 95.0587" stroke="black" stroke-width="11" stroke-linecap="round"/>
<path d="M92.5833 108.554L116.973 115.089" stroke="black" stroke-width="11" stroke-linecap="round"/>
<path d="M170.956 106.448C165.871 125.429 163.327 134.918 157.563 141.073C153.011 145.933 147.12 149.334 140.636 150.846C139.825 151.035 139.003 151.181 138.16 151.285C130.457 152.235 121.06 149.717 103.953 145.133C84.9721 140.047 75.4819 137.504 69.327 131.739C64.467 127.188 61.066 121.297 59.5541 114.812C57.6391 106.599 60.1819 97.109 65.2677 78.1288L69.6245 61.869C70.3559 59.1394 71.0347 56.606 71.6781 54.2506C75.5083 40.2281 78.0822 32.5134 83.0179 27.2437C87.5695 22.3837 93.4603 18.9827 99.9454 17.4707C108.158 15.5558 117.648 18.0986 136.629 23.1844C155.608 28.2702 165.099 30.813 171.254 36.5777C176.114 41.1296 179.515 47.0203 181.027 53.505C182.381 59.3129 181.505 65.7598 179.078 75.75" stroke="black" stroke-width="11" stroke-linecap="round"/>
<path d="M27.5412 140.112C32.627 159.093 35.1698 168.582 40.9345 174.738C45.4864 179.597 51.3771 182.999 57.8617 184.51C66.0745 186.425 75.5647 183.882 94.5453 178.797C113.525 173.711 123.015 171.168 129.171 165.403C133.319 161.518 136.405 156.656 138.16 151.282M71.6781 54.248C68.711 55.0152 65.4599 55.8863 61.869 56.8485C42.8887 61.9343 33.3986 64.4771 27.2437 70.2419C22.3837 74.7937 18.9827 80.6844 17.4707 87.1689C16.1164 92.9772 16.9918 99.4252 19.4196 109.417" stroke="black" stroke-width="11" stroke-linecap="round" stroke-linejoin="round"/>
</svg>
